<?xml version="1.0" encoding="UTF-8"?>
<svg fill="#64748B" width="100pt" height="100pt" version="1.1" viewBox="0 0 100 100" xmlns="http://www.w3.org/2000/svg">
 <path d="m60.238 46.957 2.7812 7.9102c0.46875 1.3242 1.4805 2.4023 2.7812 2.957 3.6992 1.7188 8.1094-1.9922 6.8984-5.9297l-5.6758-20.918c-0.97266-3.5859-4-6.2539-7.707-6.7969l-3.918-0.57422c1.2617-1.3359 2.0469-3.1211 2.0469-5.0977v-4.8125c-0.30469-9.8164-14.578-9.8633-14.895 0v4.8125c0 1.9766 0.78516 3.7617 2.0469 5.0977l-3.918 0.57422c-3.707 0.54297-6.7344 3.207-7.707 6.7969l-5.6758 20.918c-1.5469 6.2383 7.4375 8.9492 9.6836 2.9688 0 0 2.7773-7.9062 2.7773-7.9062l0.10547 3c0.34766 0.79297-2.8867 32.477-2.957 34.145-3.9141-0.11328-7.1836 3.0273-7.1797 6.9102 0 1.5078 1.2305 2.7344 2.7461 2.7344h11.16c1.9609 0 3.6133-1.4531 3.8516-3.3828l2.5078-20.18 2.5078 20.18c0.23828 1.9297 1.8945 3.3828 3.8516 3.3828h11.16c1.5156 0 2.7461-1.2266 2.7461-2.7344 0.007813-3.8867-3.2656-7.0234-7.1797-6.9102-0.26172-4.5938-3.5508-33.227-2.8477-37.148zm-14.562-33.258c0.14844-5.6992 8.4961-5.6992 8.6445 0v4.8125c-0.14844 5.6953-8.4961 5.6992-8.6445 0v-4.8125zm15.988 73.531h1.6289c1.9883 0 3.6289 1.4922 3.8281 3.3945h-10.762c-0.38281 0-0.70703-0.27734-0.75391-0.64062-0.19141-2.3789-4.6992-34.934-4.0469-36.406-0.035156-2.0547-3.0898-2.0547-3.125 0v3.8516l-4.0469 32.555c-0.046875 0.36719-0.37109 0.64062-0.75391 0.64062h-10.762c0.19922-1.9062 1.8398-3.3945 3.8281-3.3945h1.6289c0.80859 0 1.4805-0.61328 1.5547-1.418 0.066407-1.5234 3.5273-35.84 3.0977-35.965 0 0-0.46484-13.137-0.46484-13.148-0.027344-0.84375-0.72266-1.5078-1.5586-1.5078-0.88281 0-1.5977 0.73438-1.5625 1.6172l0.054688 1.5898-5.4219 15.43c-0.17969 0.50781-0.55859 0.90625-1.0625 1.125-1.3984 0.66406-3.1211-0.73828-2.6602-2.2383l5.6758-20.918c0.64844-2.3867 2.668-4.1602 5.1445-4.5234l8.8672-1.3008 8.8672 1.3008c2.4766 0.36328 4.4961 2.1367 5.1445 4.5234l5.6758 20.914c0.45312 1.5-1.2539 2.9023-2.6602 2.2383-0.50391-0.21484-0.88281-0.61328-1.0625-1.1211l-5.4219-15.434 0.054688-1.5859c0.039062-2.0391-3.0117-2.1719-3.1211-0.10938-0.054688 0.82031-0.40625 11.977-0.46484 13.148-0.42578 0.13281 3.0273 34.465 3.0977 35.965 0.074219 0.80469 0.75 1.418 1.5547 1.418z"/>
</svg>
